# Blender v2.79 (sub 0) OBJ File: ''
# www.blender.org
mtllib Portal.mtl
o Cylinder
v -3.695516 0.000000 -1.530735
v -1.530736 -0.000001 3.695517
v 3.695520 -0.000000 1.530733
v 1.530732 0.000001 -3.695518
v 0.780360 0.000001 -3.923139
v 0.000000 0.000001 -3.999999
v -0.780356 0.000001 -3.923143
v -1.530728 0.000001 -3.695518
v -2.222276 0.000001 -3.325879
v -2.828424 0.000000 -2.828431
v -3.325876 0.000000 -2.222283
v -3.923140 0.000000 -0.780363
v -4.000000 0.000000 -0.000003
v -3.923140 -0.000000 0.780357
v -3.695520 -0.000000 1.530733
v -3.325880 -0.000000 2.222281
v -2.828428 -0.000000 2.828425
v -2.222284 -0.000001 3.325878
v -0.780364 -0.000001 3.923141
v 0.000000 -0.000001 4.000001
v 0.780360 -0.000001 3.923141
v 1.530732 -0.000001 3.695521
v 2.222280 -0.000001 3.325881
v 2.828428 -0.000000 2.828430
v 3.325880 -0.000000 2.222281
v 3.923139 -0.000000 0.780361
v 4.000000 -0.000000 0.000001
v 3.923139 0.000000 -0.780359
v 3.695520 0.000000 -1.530731
v 3.325880 0.000000 -2.222277
v 2.828428 0.000000 -2.828427
v 2.222280 0.000001 -3.325879
vt 0.645844 0.980785
vt 0.019215 0.645844
vt 0.354156 0.019214
vt 0.980786 0.354156
vt 1.000000 0.450755
vt 1.000000 0.549246
vt 0.980786 0.645845
vt 0.943094 0.736839
vt 0.888375 0.818731
vt 0.818732 0.888376
vt 0.736839 0.943094
vt 0.549245 1.000000
vt 0.450754 1.000000
vt 0.354155 0.980785
vt 0.263161 0.943094
vt 0.181268 0.888375
vt 0.111625 0.818731
vt 0.056905 0.736839
vt 0.000000 0.549245
vt 0.000000 0.450754
vt 0.019215 0.354155
vt 0.056906 0.263161
vt 0.111625 0.181268
vt 0.181269 0.111624
vt 0.263162 0.056905
vt 0.450755 0.000000
vt 0.549246 0.000000
vt 0.645845 0.019215
vt 0.736839 0.056906
vt 0.818732 0.111625
vt 0.888376 0.181269
vt 0.943095 0.263162
vn 0.0000 1.0000 0.0000
usemtl None
s 1
f 1/1/1 2/2/1 3/3/1
f 4/4/1 5/5/1 6/6/1
f 6/6/1 7/7/1 4/4/1
f 7/7/1 8/8/1 4/4/1
f 8/8/1 9/9/1 10/10/1
f 10/10/1 11/11/1 1/1/1
f 1/1/1 12/12/1 13/13/1
f 13/13/1 14/14/1 1/1/1
f 14/14/1 15/15/1 1/1/1
f 15/15/1 16/16/1 2/2/1
f 16/16/1 17/17/1 2/2/1
f 17/17/1 18/18/1 2/2/1
f 2/2/1 19/19/1 20/20/1
f 20/20/1 21/21/1 22/22/1
f 22/22/1 23/23/1 24/24/1
f 24/24/1 25/25/1 3/3/1
f 3/3/1 26/26/1 27/27/1
f 27/27/1 28/28/1 3/3/1
f 28/28/1 29/29/1 3/3/1
f 29/29/1 30/30/1 31/31/1
f 31/31/1 32/32/1 4/4/1
f 8/8/1 10/10/1 4/4/1
f 10/10/1 1/1/1 4/4/1
f 2/2/1 20/20/1 3/3/1
f 20/20/1 22/22/1 3/3/1
f 22/22/1 24/24/1 3/3/1
f 29/29/1 31/31/1 3/3/1
f 31/31/1 4/4/1 3/3/1
f 1/1/1 15/15/1 2/2/1
f 4/4/1 1/1/1 3/3/1
